<?xml version="1.0" standalone="no"?>
<!DOCTYPE svg PUBLIC "-//W3C//DTD SVG 20010904//EN"
 "http://www.w3.org/TR/2001/REC-SVG-20010904/DTD/svg10.dtd">
<svg version="1.0" xmlns="http://www.w3.org/2000/svg"
 width="600.000000pt" height="600.000000pt" viewBox="0 0 600.000000 600.000000"
 preserveAspectRatio="xMidYMid meet">
<metadata>
Created by potrace 1.11, written by Peter Selinger 2001-2013
</metadata>
<g transform="translate(0.000000,600.000000) scale(0.100000,-0.100000)"
fill="#000000" stroke="none">
<path d="M708 3505 c-2 -2 -57 -6 -123 -10 -66 -4 -123 -9 -127 -11 -4 -3 -7
-245 -8 -539 l0 -535 155 0 155 0 0 365 0 365 33 30 c61 56 154 71 206 33 14
-11 36 -39 49 -63 22 -43 22 -51 22 -387 l0 -343 154 0 154 0 -2 398 c-2 218
-5 404 -8 412 -2 8 -8 26 -12 40 -39 131 -153 231 -276 243 -105 10 -233 -54
-293 -147 -10 -15 -21 -25 -24 -22 -3 2 -7 40 -10 83 -3 43 -7 80 -9 82 -6 6
-32 10 -36 6z"/>
<path d="M2025 3499 c-125 -15 -229 -70 -310 -162 -163 -187 -183 -459 -48
-663 70 -107 173 -180 293 -208 67 -16 188 -14 233 3 16 6 30 11 31 11 2 0 9
-14 16 -30 19 -47 7 -143 -24 -190 -58 -87 -178 -107 -276 -45 -36 23 -81 75
-93 108 -7 19 -12 18 -178 -53 l-77 -33 19 -44 c76 -177 254 -294 446 -294
149 1 252 42 351 139 145 141 185 360 97 533 -10 19 -24 42 -32 51 -14 15 -11
25 20 90 46 95 57 145 52 243 -4 101 -12 130 -62 229 l-15 28 89 -4 88 -5 3
138 c3 127 1 138 -15 137 -17 -1 -130 4 -423 18 -63 3 -117 6 -120 8 -3 1 -32
-1 -65 -5z m100 -270 c114 -32 176 -201 130 -357 -48 -159 -224 -206 -324 -86
-67 81 -80 228 -31 332 32 66 54 89 107 108 47 16 67 17 118 3z"/>
<path d="M3087 3504 c-3 -3 -152 -13 -203 -14 l-41 0 0 -540 -1 -540 154 0
154 0 0 365 0 364 28 27 c88 84 202 77 257 -17 19 -32 20 -55 23 -386 l3 -353
154 0 155 0 -1 382 c-2 400 -5 440 -48 530 -51 105 -165 182 -271 181 -95 -1
-154 -27 -231 -103 -38 -37 -69 -65 -69 -61 -1 3 -3 40 -6 81 -3 41 -8 77 -10
79 -5 5 -42 9 -47 5z"/>
<path d="M4288 3505 c-2 -3 -158 -12 -238 -14 l-25 -1 0 -540 0 -540 152 0
153 0 1 213 c0 243 2 270 19 352 25 127 100 194 219 198 l56 2 5 135 c3 74 3
149 2 166 -4 29 -5 30 -50 27 -26 -2 -54 -6 -62 -10 -17 -7 -26 -10 -38 -12
-20 -3 -96 -78 -123 -120 l-29 -46 -1 30 c0 17 -2 41 -4 55 -2 14 -4 42 -6 62
-3 32 -19 55 -31 43z"/>
<path d="M5067 3488 c-159 -34 -276 -161 -283 -306 -3 -81 17 -140 66 -191 50
-51 106 -80 271 -136 74 -25 144 -55 156 -67 41 -38 26 -98 -28 -117 -72 -25
-141 -3 -186 59 l-28 37 -132 -41 c-73 -23 -135 -45 -139 -48 -12 -13 41 -100
91 -147 91 -86 200 -129 324 -129 93 0 154 14 230 52 148 76 221 238 172 383
-39 115 -115 166 -354 239 -104 32 -137 54 -137 93 0 67 96 101 169 60 23 -12
41 -25 41 -28 1 -3 11 -19 24 -35 l24 -29 118 38 c66 20 125 39 132 41 9 2 6
14 -10 43 -88 154 -237 243 -403 239 -44 -1 -97 -5 -118 -10z"/>
</g>
</svg>
